<?xml version="1.0" encoding="iso-8859-1"?>
<!-- Generator: Adobe Illustrator 19.0.0, SVG Export Plug-In . SVG Version: 6.00 Build 0)  -->
<svg version="1.1" id="logo" xmlns="http://www.w3.org/2000/svg" xmlns:xlink="http://www.w3.org/1999/xlink" x="0px" y="0px"
	 viewBox="0 0 512 512" style="enable-background:new 0 0 512 512;" xml:space="preserve">
<g>
	<g>
		<path d="M445.764,0.759c-75.167,0-138.255,52.678-154.295,123.046c-28.329-42.948-77.007-71.347-132.195-71.347h-16.279v16.289
			c0,82.627,63.668,150.665,144.525,157.644v28.789c8-0.36,16.339-0.24,24.989,0.48c1.68,0.14,3.35,0.32,5.01,0.55v-81.517
			c80.857-6.98,144.525-75.017,144.525-157.654V0.759H445.764z"/>
	</g>
</g>
<g>
	<g>
		<path d="M310.029,285.559c-41.189-3.42-74.177,9.25-94.467,20.369l84.227,33.719c9.84,3.93,17.979,10.61,23.639,19.249
			l65.808-27.359C367.497,309.948,339.768,288.029,310.029,285.559z"/>
	</g>
</g>
<g>
	<g>
		<path d="M508.112,369.116c-5.16-12.42-14.849-22.089-27.279-27.219c-11.98-4.94-25.129-5.1-37.189-0.49
			c-0.45,0.17-0.9,0.35-1.35,0.54l-1.78,0.74l-14.68,6.1l-14.689,6.11l-79.247,32.929v0.03c-0.09,5.99-1.27,11.95-3.51,17.669
			c0,0.01,0,0.01,0,0.01c-0.33,0.86-0.69,1.7-1.07,2.54c-4.23,9.35-11.1,17.009-19.479,22.229c-7.96,4.98-17.279,7.77-27.019,7.77
			c-6.37,0-12.64-1.19-18.649-3.54l-73.737-28.989l5.49-13.959l5.48-13.96l20.239,7.95l53.488,21.029c2.49,0.97,5.08,1.47,7.69,1.47
			c3.71,0,7.27-0.98,10.38-2.76c0.82-0.46,1.61-0.98,2.36-1.55c2.73-2.07,4.96-4.82,6.43-8.06c2.39-5.28,2.52-11.15,0.35-16.529
			c-2.16-5.38-6.32-9.52-11.7-11.68l-101.776-40.739c-15.209-6.09-31.929-5.98-47.078,0.31l-1.95,0.81l-39.319,16.339v101.496
			l145.355,58.718c11.28,4.54,23.109,6.81,34.929,6.81c12.16,0,24.319-2.4,35.869-7.2l166.274-69.108
			c12.42-5.16,22.089-14.849,27.219-27.279C513.292,395.225,513.282,381.535,508.112,369.116z"/>
	</g>
</g>
<g>
	<g>
		<rect y="280" width="68.518" height="201.283"/>
	</g>
</g>
<g>
</g>
<g>
</g>
<g>
</g>
<g>
</g>
<g>
</g>
<g>
</g>
<g>
</g>
<g>
</g>
<g>
</g>
<g>
</g>
<g>
</g>
<g>
</g>
<g>
</g>
<g>
</g>
<g>
</g>
</svg>
