<svg id="Capa_1" fill="#FF4F5A" enable-background="new 0 0 513.434 513.434" height="512" viewBox="0 0 513.434 513.434" width="512" xmlns="http://www.w3.org/2000/svg"><g><path d="m445.934 188.92c-7.993 0-15.786 1.381-23.217 4.109v-132.312h-147.157l15.812 38.171.086.206c2.028 4.695 3.056 9.688 3.056 14.84 0 20.678-16.822 37.5-37.5 37.5s-37.5-16.822-37.5-37.5c0-5.15 1.028-10.145 3.057-14.843l15.898-38.374h-147.752v132.313c-7.431-2.729-15.224-4.109-23.217-4.109-37.22 0-67.5 30.28-67.5 67.5s30.28 67.5 67.5 67.5c7.994 0 15.787-1.381 23.217-4.11v132.907h147.157l-15.812-38.171-.086-.206c-2.028-4.695-3.056-9.688-3.056-14.84 0-20.678 16.822-37.5 37.5-37.5s37.5 16.822 37.5 37.5c0 5.15-1.028 10.145-3.057 14.843l-15.898 38.374h147.751v-132.908c7.43 2.729 15.223 4.11 23.217 4.11 37.22 0 67.5-30.28 67.5-67.5s-30.28-67.5-67.499-67.5zm0 105c-5.151 0-10.145-1.028-14.841-3.057l-38.375-15.897v147.751h-72.908c2.729-7.432 4.11-15.224 4.11-23.217 0-37.22-30.28-67.5-67.5-67.5s-67.5 30.28-67.5 67.5c0 7.995 1.381 15.787 4.109 23.217h-72.313v-147.751l-38.17 15.811-.206.087c-4.696 2.028-9.69 3.057-14.841 3.057-20.678 0-37.5-16.822-37.5-37.5s16.822-37.5 37.5-37.5c5.151 0 10.144 1.028 14.841 3.056l38.375 15.897v-147.157h72.907c-2.729 7.432-4.11 15.224-4.11 23.217 0 37.22 30.28 67.5 67.5 67.5s67.5-30.28 67.5-67.5c0-7.995-1.381-15.787-4.109-23.217h72.313v147.156l38.171-15.811.205-.087c4.697-2.027 9.69-3.056 14.841-3.056 20.678 0 37.5 16.822 37.5 37.5s-16.822 37.501-37.499 37.501z"/></g></svg>